<?xml version="1.0" encoding="UTF-8"?>
<svg version="1.1" xmlns="http://www.w3.org/2000/svg" width="555" height="554">
<path d="M0 0 C0.7729541 0.24943359 1.5459082 0.49886719 2.34228516 0.75585938 C30.51487748 10.0531136 56.79990967 24.59741836 80 43 C80.98226563 43.76957031 81.96453125 44.53914063 82.9765625 45.33203125 C90.31149625 51.19786444 97.18822555 57.54211401 104 64 C104.75410156 64.7115625 105.50820313 65.423125 106.28515625 66.15625 C110.80743993 70.54367433 114.7997723 75.26534038 118.734375 80.18359375 C120.15428156 81.94868449 121.59884205 83.6945217 123.078125 85.41015625 C162.19276596 131.11633855 181.54662039 192.06797969 181.3125 251.625 C181.30976578 253.07366959 181.30976578 253.07366959 181.30697632 254.55160522 C181.26041829 269.22648204 180.70552373 283.542527 178 298 C177.8443457 298.8967041 177.68869141 299.7934082 177.52832031 300.71728516 C169.73302289 344.86729803 149.7796582 386.72070396 121 421 C120.57283691 421.51594727 120.14567383 422.03189453 119.70556641 422.56347656 C109.1755494 435.26391417 98.01965271 446.82229058 85 457 C83.90899833 457.88007691 82.8192085 458.76165767 81.73046875 459.64453125 C68.05129282 470.67136448 53.56038568 479.85386762 38 488 C37.21979492 488.4125 36.43958984 488.825 35.63574219 489.25 C-24.3996361 520.60262514 -97.69925197 525.32216871 -162.07421875 505.578125 C-163.71765226 505.05680871 -165.35962864 504.53087304 -167 504 C-167.7729541 503.75056641 -168.5459082 503.50113281 -169.34228516 503.24414062 C-197.51487748 493.9468864 -223.79990967 479.40258164 -247 461 C-247.98226562 460.23042969 -248.96453125 459.46085937 -249.9765625 458.66796875 C-257.31149625 452.80213556 -264.18822555 446.45788599 -271 440 C-272.13115234 438.93265625 -272.13115234 438.93265625 -273.28515625 437.84375 C-277.80743993 433.45632567 -281.7997723 428.73465962 -285.734375 423.81640625 C-287.15428156 422.05131551 -288.59884205 420.3054783 -290.078125 418.58984375 C-329.19276596 372.88366145 -348.54662039 311.93202031 -348.3125 252.375 C-348.31067719 251.40922028 -348.30885437 250.44344055 -348.30697632 249.44839478 C-348.26041829 234.77351796 -347.70552373 220.457473 -345 206 C-344.8443457 205.1032959 -344.68869141 204.2065918 -344.52832031 203.28271484 C-336.73302289 159.13270197 -316.7796582 117.27929604 -288 83 C-287.57283691 82.48405273 -287.14567383 81.96810547 -286.70556641 81.43652344 C-276.1755494 68.73608583 -265.01965271 57.17770942 -252 47 C-250.90899833 46.11992309 -249.8192085 45.23834233 -248.73046875 44.35546875 C-235.05129282 33.32863552 -220.56038568 24.14613238 -205 16 C-204.21979492 15.5875 -203.43958984 15.175 -202.63574219 14.75 C-140.86349587 -17.50967984 -65.82055464 -21.30149249 0 0 Z " fill="#FEFEFE" transform="translate(361,25)"/>
<path d="M0 0 C0.7729541 0.24943359 1.5459082 0.49886719 2.34228516 0.75585938 C30.51487748 10.0531136 56.79990967 24.59741836 80 43 C80.98226563 43.76957031 81.96453125 44.53914063 82.9765625 45.33203125 C90.31149625 51.19786444 97.18822555 57.54211401 104 64 C104.75410156 64.7115625 105.50820313 65.423125 106.28515625 66.15625 C110.80743993 70.54367433 114.7997723 75.26534038 118.734375 80.18359375 C120.15428156 81.94868449 121.59884205 83.6945217 123.078125 85.41015625 C162.19276596 131.11633855 181.54662039 192.06797969 181.3125 251.625 C181.30976578 253.07366959 181.30976578 253.07366959 181.30697632 254.55160522 C181.26041829 269.22648204 180.70552373 283.542527 178 298 C177.8443457 298.8967041 177.68869141 299.7934082 177.52832031 300.71728516 C169.73302289 344.86729803 149.7796582 386.72070396 121 421 C120.57283691 421.51594727 120.14567383 422.03189453 119.70556641 422.56347656 C109.1755494 435.26391417 98.01965271 446.82229058 85 457 C83.90899833 457.88007691 82.8192085 458.76165767 81.73046875 459.64453125 C68.05129282 470.67136448 53.56038568 479.85386762 38 488 C37.21979492 488.4125 36.43958984 488.825 35.63574219 489.25 C-24.3996361 520.60262514 -97.69925197 525.32216871 -162.07421875 505.578125 C-163.71765226 505.05680871 -165.35962864 504.53087304 -167 504 C-167.7729541 503.75056641 -168.5459082 503.50113281 -169.34228516 503.24414062 C-197.51487748 493.9468864 -223.79990967 479.40258164 -247 461 C-247.98226562 460.23042969 -248.96453125 459.46085937 -249.9765625 458.66796875 C-257.31149625 452.80213556 -264.18822555 446.45788599 -271 440 C-272.13115234 438.93265625 -272.13115234 438.93265625 -273.28515625 437.84375 C-277.80743993 433.45632567 -281.7997723 428.73465962 -285.734375 423.81640625 C-287.15428156 422.05131551 -288.59884205 420.3054783 -290.078125 418.58984375 C-329.19276596 372.88366145 -348.54662039 311.93202031 -348.3125 252.375 C-348.31067719 251.40922028 -348.30885437 250.44344055 -348.30697632 249.44839478 C-348.26041829 234.77351796 -347.70552373 220.457473 -345 206 C-344.8443457 205.1032959 -344.68869141 204.2065918 -344.52832031 203.28271484 C-336.73302289 159.13270197 -316.7796582 117.27929604 -288 83 C-287.57283691 82.48405273 -287.14567383 81.96810547 -286.70556641 81.43652344 C-276.1755494 68.73608583 -265.01965271 57.17770942 -252 47 C-250.90899833 46.11992309 -249.8192085 45.23834233 -248.73046875 44.35546875 C-235.05129282 33.32863552 -220.56038568 24.14613238 -205 16 C-204.21979492 15.5875 -203.43958984 15.175 -202.63574219 14.75 C-140.86349587 -17.50967984 -65.82055464 -21.30149249 0 0 Z M-123 6 C-123.99056396 6.1556543 -124.98112793 6.31130859 -126.00170898 6.47167969 C-166.75298366 13.35921907 -205.97774641 30.87548962 -238 57 C-239.47533203 58.16982422 -239.47533203 58.16982422 -240.98046875 59.36328125 C-256.26842266 71.82228552 -270.44167251 86.00308527 -282 102 C-282.85334392 103.14774758 -283.70752439 104.29487362 -284.5625 105.44140625 C-290.60869853 113.63565673 -295.94439454 122.16611757 -301 131 C-301.65613281 132.12277344 -302.31226563 133.24554688 -302.98828125 134.40234375 C-333.96513303 189.58956065 -340.10126337 258.54118772 -323.17578125 319.0546875 C-322.7873098 320.37081657 -322.39512171 321.68585212 -322 323 C-321.76974121 323.76860352 -321.53948242 324.53720703 -321.30224609 325.32910156 C-311.42036525 357.7518386 -295.15098324 387.32778837 -273 413 C-272.35417969 413.75667969 -271.70835937 414.51335937 -271.04296875 415.29296875 C-260.02215329 427.87313477 -248.19099004 439.87294782 -234.6796875 449.76904297 C-233.0029241 450.99785707 -231.34512847 452.24944508 -229.6875 453.50390625 C-192.57851627 481.20040722 -143.86755124 500.10728063 -97.1640625 500.16796875 C-96.24523285 500.17129715 -95.3264032 500.17462555 -94.37973022 500.17805481 C-92.44179784 500.18308981 -90.50385689 500.1854642 -88.56591797 500.18530273 C-85.66748899 500.18746825 -82.76945457 500.20560292 -79.87109375 500.22460938 C-25.55145096 500.39186447 28.89941949 481.6644886 71 447 C71.98097656 446.22140625 72.96195312 445.4428125 73.97265625 444.640625 C89.26754724 432.18814738 103.44124034 417.99751286 115 402 C115.85334392 400.85225242 116.70752439 399.70512638 117.5625 398.55859375 C127.17963839 385.52656859 135.15152286 371.66562149 142 357 C142.36625488 356.21915039 142.73250977 355.43830078 143.10986328 354.63378906 C149.51585676 340.80471736 154.12953105 326.72837763 158 312 C158.26506348 310.99839844 158.53012695 309.99679687 158.80322266 308.96484375 C160.41605553 302.71673518 161.7158714 296.51270613 162.625 290.125 C162.74979736 289.25552734 162.87459473 288.38605469 163.00317383 287.49023438 C167.23971528 257.10633259 165.96012926 225.86627142 159 196 C158.82098145 195.22092285 158.64196289 194.4418457 158.45751953 193.63916016 C150.10475908 157.95551179 133.7872022 125.61500932 111 97 C110.58137695 96.46568359 110.16275391 95.93136719 109.73144531 95.38085938 C97.66525876 80.06941755 83.43447369 65.60971445 67.62255859 54.17822266 C65.98600262 52.98983579 64.37738712 51.76982531 62.76953125 50.54296875 C52.77845383 43.03302614 41.98551656 36.92568504 31 31 C29.90220215 30.39889404 29.90220215 30.39889404 28.78222656 29.78564453 C-5.17957414 11.46979272 -44.07327094 3.56716824 -82.35327148 3.73925781 C-85.19601556 3.75003228 -88.03813354 3.73925651 -90.88085938 3.7265625 C-101.7574018 3.71760635 -112.25218028 4.27986685 -123 6 Z " fill="#F15B25" transform="translate(361,25)"/>
<path d="M0 0 C5.17783211 3.93099629 9.01625324 8.43938473 11.0859375 14.6484375 C12.58592312 30.582711 5.58478361 40.50322028 -3.79296875 52.6484375 C-10.96268579 62.78903176 -11.92027323 73.46071004 -10.9140625 85.6484375 C-8.62813071 96.67546075 -3.4724784 105.49574757 5.64453125 112.14453125 C15.91893735 118.47356541 27.03000293 120.12644619 38.91015625 118.1875 C48.08553188 115.73881263 55.68356404 110.44664615 61.0859375 102.6484375 C61.56160156 101.96523438 62.03726563 101.28203125 62.52734375 100.578125 C67.49393587 92.22972228 68.28630042 81.82808367 66.453125 72.390625 C62.88507382 61.62650422 55.38696217 53.84912061 46.0859375 47.6484375 C47.71508015 42.90827668 50.27342074 38.98278817 53.0234375 34.8359375 C53.46623047 34.14306641 53.90902344 33.45019531 54.36523438 32.73632812 C55.52391239 30.98363337 56.79774365 29.30826588 58.0859375 27.6484375 C59.0759375 27.6484375 60.0659375 27.6484375 61.0859375 27.6484375 C60.4259375 27.3184375 59.7659375 26.9884375 59.0859375 26.6484375 C60.46096531 22.77335914 62.24955064 19.80855543 64.7109375 16.5234375 C65.76667969 15.10224609 65.76667969 15.10224609 66.84375 13.65234375 C67.58367187 12.66105469 68.32359375 11.66976562 69.0859375 10.6484375 C70.58866216 8.58792182 72.08879009 6.5255091 73.5859375 4.4609375 C74.75260417 2.85677083 75.91927083 1.25260417 77.0859375 -0.3515625 C96.48558619 8.27050358 112.60346266 29.30976989 120.09375 48.70703125 C126.91000518 68.91427595 127.54484695 91.29517722 121.0859375 111.6484375 C120.72371094 112.79699219 120.36148438 113.94554687 119.98828125 115.12890625 C111.53371027 139.11696017 92.75819245 158.60675489 70.0859375 169.6484375 C47.64384726 180.3878927 20.83328928 182.52907305 -2.9140625 174.6484375 C-28.27560535 165.59859652 -49.18022948 147.90018571 -61.125 123.66015625 C-71.77656995 100.64330222 -73.72106228 73.81866371 -64.91381836 49.81567383 C-58.57741571 33.61255758 -48.61576024 19.4449042 -34.9140625 8.6484375 C-34.4190625 9.6384375 -34.4190625 9.6384375 -33.9140625 10.6484375 C-34.2440625 11.6384375 -34.5740625 12.6284375 -34.9140625 13.6484375 C-35.04562777 17.33226519 -35.08388388 20.13897335 -33.9140625 23.6484375 C-33.96046875 22.85179687 -34.006875 22.05515625 -34.0546875 21.234375 C-34.34796081 12.62470869 -34.34796081 12.62470869 -32.4140625 8.2734375 C-24.02692625 -0.53305556 -11.78280107 -5.46494527 0 0 Z " fill="#6551C4" transform="translate(249.9140625,159.3515625)"/>
<path d="M0 0 C5.17783211 3.93099629 9.01625324 8.43938473 11.0859375 14.6484375 C12.58592312 30.582711 5.58478361 40.50322028 -3.79296875 52.6484375 C-10.96268579 62.78903176 -11.92027323 73.46071004 -10.9140625 85.6484375 C-8.62813071 96.67546075 -3.4724784 105.49574757 5.64453125 112.14453125 C15.91893735 118.47356541 27.03000293 120.12644619 38.91015625 118.1875 C48.08553188 115.73881263 55.68356404 110.44664615 61.0859375 102.6484375 C61.56160156 101.96523438 62.03726563 101.28203125 62.52734375 100.578125 C67.49393587 92.22972228 68.28630042 81.82808367 66.453125 72.390625 C62.88507382 61.62650422 55.38696217 53.84912061 46.0859375 47.6484375 C47.70708252 42.85022091 50.37870509 38.9811516 53.2109375 34.8359375 C53.91283203 33.79663086 53.91283203 33.79663086 54.62890625 32.73632812 C55.77706187 31.03752645 56.93093117 29.34258886 58.0859375 27.6484375 C69.12340562 31.5750412 81.09367504 43.08294308 86.21484375 53.5703125 C86.50230469 54.25609375 86.78976562 54.941875 87.0859375 55.6484375 C87.52808594 56.62296875 87.97023438 57.5975 88.42578125 58.6015625 C94.30437122 73.38760044 94.46630298 90.56408181 88.6484375 105.40625 C80.92771201 121.42675539 69.47347128 132.55854063 53.0859375 139.6484375 C45.4749225 142.29049709 38.36531573 143.16861393 30.3359375 143.0859375 C29.28680176 143.07763916 28.23766602 143.06934082 27.15673828 143.06079102 C8.58193185 142.65910404 -7.89961355 136.07260058 -20.9140625 122.6484375 C-21.48640625 122.08511719 -22.05875 121.52179688 -22.6484375 120.94140625 C-35.42608273 107.40632329 -37.67192414 88.83876185 -37.29296875 71.12109375 C-36.75811656 60.05022851 -32.78048746 50.35845053 -25.9140625 41.6484375 C-25.1303125 40.6378125 -24.3465625 39.6271875 -23.5390625 38.5859375 C-22.7346875 37.626875 -22.7346875 37.626875 -21.9140625 36.6484375 C-22.52894531 36.29652344 -23.14382812 35.94460937 -23.77734375 35.58203125 C-29.15158167 32.2992033 -32.36792415 30.03914267 -33.9140625 23.6484375 C-34.49328428 18.13097878 -34.69208282 13.39898322 -32.4140625 8.2734375 C-24.02692625 -0.53305556 -11.78280107 -5.46494527 0 0 Z " fill="#FF6701" transform="translate(249.9140625,159.3515625)"/>
<path d="M0 0 C5.53179027 -0.07462464 11.06328205 -0.12882498 16.59545898 -0.16479492 C18.4740917 -0.17980333 20.35268984 -0.20021652 22.23120117 -0.22631836 C24.94458593 -0.26305386 27.6575041 -0.27980607 30.37109375 -0.29296875 C31.61384315 -0.31619453 31.61384315 -0.31619453 32.88169861 -0.33988953 C42.22205013 -0.3425346 50.25551802 2.41715049 57 9 C63.30666352 17.26282466 63.53385789 24.90613146 63 35 C61.17986425 47.91062394 54.84735535 59.4324997 45 68 C41.14160692 70.39220371 37.17380521 72.23022475 33 74 C30.03 75.32 27.06 76.64 24 78 C24 85.92 24 93.84 24 102 C21.2775 102.99 18.555 103.98 15.75 105 C14.89889648 105.31324219 14.04779297 105.62648438 13.17089844 105.94921875 C12.4905957 106.19285156 11.81029297 106.43648438 11.109375 106.6875 C10.41811523 106.93886719 9.72685547 107.19023437 9.01464844 107.44921875 C7 108 7 108 3 108 C2.98969254 107.40627594 2.97938507 106.81255188 2.96876526 106.20083618 C2.61272443 63.21562214 2.61272443 63.21562214 0.203125 20.32055664 C-0.0458259 16.25086776 -0.04697571 12.20480267 -0.02734375 8.12890625 C-0.02536987 7.34487427 -0.023396 6.56084229 -0.0213623 5.75305176 C-0.01624846 3.83536144 -0.00840327 1.91767873 0 0 Z " fill="#2502D1" transform="translate(313,357)"/>
<path d="M0 0 C5.53176738 -0.0994991 11.06300426 -0.17176423 16.59545898 -0.21972656 C18.47413213 -0.2397382 20.3527438 -0.26695637 22.23120117 -0.30175781 C24.94465373 -0.3507397 27.65727696 -0.37307329 30.37109375 -0.390625 C31.61384315 -0.42159271 31.61384315 -0.42159271 32.88169861 -0.45318604 C39.98636766 -0.45586865 45.81564784 1.53060589 51.453125 5.90234375 C62.72462429 18.66854186 62.95595282 31.72903752 62.23681641 48.0612793 C61.47740072 57.48507997 59.33342634 67.66327661 51.8125 74.0625 C46.60615771 77.64909136 42.2428348 77.84989088 36 77 C32.74660854 75.68127094 29.77459763 74.14778275 26.7265625 72.41015625 C23.74681638 70.70992931 23.74681638 70.70992931 19 70 C19 76.6 19 83.2 19 90 C5.56087341 82.32049909 5.56087341 82.32049909 1 76 C-0.531631 70.1051355 -0.42845043 64.45287056 -0.29296875 58.3984375 C-0.29489366 56.70877892 -0.30167246 55.01911957 -0.31306458 53.32949829 C-0.32996268 48.91267187 -0.28154755 44.49895987 -0.21887207 40.0826416 C-0.16651953 35.56423024 -0.17682526 31.04599182 -0.18164062 26.52734375 C-0.18193895 17.68396389 -0.1131433 8.8426059 0 0 Z " fill="#2502D1" transform="translate(179,357)"/>
<path d="M0 0 C0.66 0 1.32 0 2 0 C10.48142853 15.70807038 15.09392523 31.6357891 10.82421875 49.5625 C8.49586349 56.44825204 5.01649789 65.56559012 -1 70 C-4.66787116 70.83621019 -8.24299067 70.6991873 -11.98828125 70.5859375 C-13.04661667 70.57744781 -14.10495209 70.56895813 -15.19535828 70.56021118 C-18.56878337 70.52667946 -21.93979999 70.45139566 -25.3125 70.375 C-27.60217897 70.34490033 -29.89189549 70.31752454 -32.18164062 70.29296875 C-37.78857929 70.22688922 -43.39411758 70.12654233 -49 70 C-49 69.34 -49 68.68 -49 68 C-49.33 68.66 -49.66 69.32 -50 70 C-60.89 70 -71.78 70 -83 70 C-81.875 63.25 -81.875 63.25 -80.60131836 60.19775391 C-80.17514221 59.1634021 -80.17514221 59.1634021 -79.74035645 58.1081543 C-79.44318726 57.404729 -79.14601807 56.70130371 -78.83984375 55.9765625 C-78.56563599 55.31422607 -78.29142822 54.65188965 -78.00891113 53.96948242 C-76.99202008 51.51844224 -75.96412242 49.07198014 -74.9375 46.625 C-72.648125 41.13875 -70.35875 35.6525 -68 30 C-49.85 30 -31.7 30 -13 30 C-13 40 -13 40 -14 44 C-22.58 44.33 -31.16 44.66 -40 45 C-40.33 46.32 -40.66 47.64 -41 49 C-40.34 47.68 -39.68 46.36 -39 45 C-30.42 45 -21.84 45 -13 45 C-12.44864595 31.7018029 -12.44864595 31.7018029 -16.125 19.1015625 C-17 17 -17 17 -17 14 C-15.54711914 12.48193359 -15.54711914 12.48193359 -13.53515625 10.8984375 C-12.45911133 10.03992188 -12.45911133 10.03992188 -11.36132812 9.1640625 C-10.60271484 8.57367188 -9.84410156 7.98328125 -9.0625 7.375 C-7.57409858 6.19546412 -6.0858113 5.01578419 -4.59765625 3.8359375 C-3.93258057 3.31563965 -3.26750488 2.7953418 -2.58227539 2.25927734 C-1.05389698 1.09154439 -1.05389698 1.09154439 0 0 Z " fill="#FF6702" transform="translate(362,80)"/>
<path d="M0 0 C0.74446381 0.00359528 1.48892761 0.00719055 2.25595093 0.01089478 C3.0363826 0.01074875 3.81681427 0.01060272 4.62089539 0.01045227 C7.21273534 0.01115158 9.80450432 0.01894481 12.39633179 0.02676392 C14.18852194 0.02862803 15.9807126 0.03005196 17.77290344 0.03105164 C22.49938351 0.03487733 27.22583305 0.04470805 31.95230103 0.05575562 C36.77153104 0.06596863 41.59076596 0.07054902 46.41000366 0.07559204 C55.87290773 0.08633027 65.3357891 0.10340731 74.79867554 0.12442017 C72.99828757 5.6672744 71.07770809 11.11844795 68.91586304 16.53067017 C68.65612701 17.18144531 68.39639099 17.83222046 68.12878418 18.50271606 C67.58723672 19.85759397 67.04441464 21.21196309 66.50033569 22.56582642 C65.66488292 24.64631601 64.83507269 26.72899768 64.00570679 28.81192017 C63.47609111 30.13496988 62.9461552 31.45789145 62.41586304 32.78067017 C61.93745972 33.97498657 61.4590564 35.16930298 60.96615601 36.39981079 C59.79867554 39.12442017 59.79867554 39.12442017 58.79867554 40.12442017 C56.30375166 40.21944433 53.83661539 40.24999582 51.34140015 40.23794556 C50.56096848 40.23809158 49.7805368 40.23823761 48.97645569 40.23838806 C46.38461574 40.23768875 43.79284675 40.22989553 41.20101929 40.22207642 C39.40882913 40.2202123 37.61663847 40.21878837 35.82444763 40.2177887 C31.09796756 40.213963 26.37151802 40.20413228 21.64505005 40.19308472 C16.82582004 40.1828717 12.00658512 40.17829131 7.18734741 40.17324829 C-2.27555666 40.16251006 -11.73843803 40.14543303 -21.20132446 40.12442017 C-19.77535142 36.31020204 -18.34784189 32.49656068 -16.92007446 28.68301392 C-16.52014282 27.61321289 -16.12021118 26.54341187 -15.7081604 25.44119263 C-6.18398012 0.01260313 -6.18398012 0.01260313 0 0 Z " fill="#604CC3" transform="translate(201.20132446289063,109.87557983398438)"/>
<path d="M0 0 C6.93 0 13.86 0 21 0 C20.9278125 2.31902344 20.855625 4.63804687 20.78125 7.02734375 C19.972368 34.35483052 19.88770492 61.66219539 20 89 C28.07089704 89.19241874 35.77186558 88.70322408 43.75 87.5 C44.74515625 87.35691406 45.7403125 87.21382813 46.765625 87.06640625 C49.17828247 86.71842681 51.58955277 86.36291838 54 86 C54.02892385 90.12498538 54.04677267 94.24994485 54.0625 98.375 C54.07087891 99.550625 54.07925781 100.72625 54.08789062 101.9375 C54.09111328 103.05898438 54.09433594 104.18046875 54.09765625 105.3359375 C54.10289307 106.37282715 54.10812988 107.4097168 54.11352539 108.47802734 C54 111 54 111 53 113 C37.66564042 117.12652201 17.37135804 116.81926381 2 113 C1.01 112.34 0.02 111.68 -1 111 C-1.34851074 108.19779968 -1.34851074 108.19779968 -1.31054688 104.5612793 C-1.3076918 103.897166 -1.30483673 103.23305271 -1.30189514 102.54881477 C-1.28861013 100.32774382 -1.25369747 98.1075466 -1.21875 95.88671875 C-1.20476484 94.31370588 -1.19205366 92.74068123 -1.18054199 91.16764832 C-1.14582961 86.96786952 -1.09224081 82.76853548 -1.03411865 78.56902313 C-0.9894972 75.20917335 -0.954682 71.84925694 -0.92019653 68.48929024 C-0.8168892 58.44783453 -0.68097304 48.40696266 -0.53643799 38.36602783 C-0.47432065 34.01292349 -0.41504119 29.6597804 -0.35546875 25.30664062 C-0.23963707 16.87105475 -0.12059447 8.43551913 0 0 Z " fill="#2603D1" transform="translate(252,357)"/>
<path d="M0 0 C3.63559661 3.43361902 6.36113346 6.7973607 9 11 C8.46890625 11.40089844 7.9378125 11.80179688 7.390625 12.21484375 C6.68421875 12.78332031 5.9778125 13.35179687 5.25 13.9375 C4.55390625 14.48277344 3.8578125 15.02804688 3.140625 15.58984375 C0.12815619 18.73634415 0.12815619 18.73634415 -3 27 C6.24 27 15.48 27 25 27 C23.43297876 31.70106371 21.84037311 36.39906723 20 41 C13.4 41 6.8 41 0 41 C7.16217751 49.37741038 7.16217751 49.37741038 17.0078125 52.2734375 C24.20116647 52.61850614 30.22278783 50.29182276 35.671875 45.54296875 C40.46603883 40.19888612 41.47959236 34.47211998 41.3125 27.52734375 C40.60781482 21.82820233 38.09768341 17.67801653 33.75 14 C32.38875 13.01 32.38875 13.01 31 12 C32.55701931 7.32894208 35.08447373 3.91294315 38 0 C47.00325578 4.63804086 53.92485243 13.39524392 57 23 C58.09712744 35.59145092 57.16220714 45.26008016 48.9375 55.3125 C41.84826168 62.75269071 33.56352391 65.55513894 23.484375 66.23828125 C15.40185379 66.39891713 9.15013485 65.87918469 2 62 C0.96875 61.443125 -0.0625 60.88625 -1.125 60.3125 C-8.93861266 54.02763765 -13.87701961 47.07660131 -16.75 37.5 C-17.81977559 26.80224411 -16.04570755 18.01290968 -9.76171875 9.1171875 C-6.87404256 5.6468538 -3.53555386 2.79075444 0 0 Z " fill="#90D151" transform="translate(258,210)"/>
<path d="M0 0 C18.15 0 36.3 0 55 0 C55 10 55 10 54 14 C45.42 14.33 36.84 14.66 28 15 C25.63714878 21.08278244 25.63714878 21.08278244 23.9375 27.1875 C23.17199008 30.30057368 22.28042768 33.07330817 21 36 C20.34 36 19.68 36 19 36 C18.67 37.32 18.34 38.64 18 40 C7.11 40 -3.78 40 -15 40 C-13.875 33.25 -13.875 33.25 -12.60131836 30.19775391 C-12.17514221 29.1634021 -12.17514221 29.1634021 -11.74035645 28.1081543 C-11.44318726 27.404729 -11.14601807 26.70130371 -10.83984375 25.9765625 C-10.56563599 25.31422607 -10.29142822 24.65188965 -10.00891113 23.96948242 C-8.99202008 21.51844224 -7.96412242 19.07198014 -6.9375 16.625 C-4.648125 11.13875 -2.35875 5.6525 0 0 Z " fill="#624EC3" transform="translate(294,110)"/>
<path d="M0 0 C9.69900336 0.16934768 9.69900336 0.16934768 13.3828125 3.5859375 C17.66515553 8.60239648 18.08203364 12.04625405 18.125 18.4375 C18.145625 19.18902344 18.16625 19.94054687 18.1875 20.71484375 C18.22167397 25.61026445 17.6141825 28.96352699 14.875 33.1875 C11.06655883 35.72646078 9.4127371 35.62663585 4.875 35.1875 C-2.89442356 32.41807644 -2.89442356 32.41807644 -5.125 30.1875 C-5.22503289 28.05396826 -5.25581048 25.91712458 -5.2578125 23.78125 C-5.25910156 22.48058594 -5.26039063 21.17992187 -5.26171875 19.83984375 C-5.25962402 19.15905762 -5.2575293 18.47827148 -5.25537109 17.77685547 C-5.2500224 15.69621485 -5.2553168 13.61579011 -5.26171875 11.53515625 C-5.26042969 10.23449219 -5.25914062 8.93382812 -5.2578125 7.59375 C-5.25668457 6.39041016 -5.25555664 5.18707031 -5.25439453 3.94726562 C-5.05423943 -0.32170274 -3.8902568 0.03296828 0 0 Z " fill="#FAFAFE" transform="translate(203.125,375.8125)"/>
<path d="M0 0 C3.45145797 2.84237715 4.97634941 4.58757914 5.55859375 9.140625 C5.57308296 23.45596261 5.57308296 23.45596261 1.125 28.75 C-4.93801751 33.67620173 -9.38017876 33.87491369 -16.875 33.75 C-18.00296398 30.14363767 -17.98916035 26.77855996 -17.97265625 23.015625 C-17.96943359 21.72011719 -17.96621094 20.42460937 -17.96289062 19.08984375 C-17.95453598 17.72656183 -17.94607104 16.36328058 -17.9375 15 C-17.93248168 13.62109535 -17.92791935 12.24218896 -17.92382812 10.86328125 C-17.91204093 7.49214341 -17.89558635 4.12109372 -17.875 0.75 C-11.68338254 -1.38067134 -6.20255139 -2.69676147 0 0 Z " fill="#FCFCFE" transform="translate(351.875,378.25)"/>
<path d="M0 0 C3.80616531 5.70924797 2.14791994 14.53353209 1 21 C-2.50636687 31.88308334 -9.14912386 39.22739803 -19.1875 44.4375 C-29.17131805 49.23967723 -40.24472919 49.56003286 -50.75 46.0625 C-53.23838688 45.134345 -55.6259928 44.1870036 -58 43 C-58 42.01 -58 41.02 -58 40 C-52 42 -52 42 -49.24609375 43.0546875 C-38.98566726 46.04268174 -26.89070962 44.61688885 -17.375 39.875 C-10.34492702 35.66677132 -5.5331631 29.75107967 -2.70703125 22.06640625 C-1.45362712 16.63037176 -1.33862747 11.12262528 -1.17578125 5.5625 C-1 2 -1 2 0 0 Z " fill="#FAF0E3" transform="translate(316,231)"/>
<path d="M0 0 C3.78492984 5.67739476 2.19362606 14.56574565 1 21 C-0.97580603 26.62572316 -2.95193496 31.63462331 -8 35 C-8 31.54781929 -7.15348431 30.02872933 -5.5625 27 C-2.22826423 20.61650587 -1.71065684 15.16167465 -1.39453125 8.07226562 C-1.10073855 2.20147711 -1.10073855 2.20147711 0 0 Z " fill="#F8F2E3" transform="translate(316,231)"/>
<path d="M0 0 C6.27350786 2.63852232 10.51888309 8.59318502 14 14.25 C15.01633915 17.04493266 15.26006504 19.05259618 15 22 C14.34 22 13.68 22 13 22 C12.61521484 21.09121094 12.61521484 21.09121094 12.22265625 20.1640625 C8.92976068 12.9573887 4.51377142 7.64590973 -1 2 C-0.67 1.34 -0.34 0.68 0 0 Z " fill="#F9F4E8" transform="translate(301,211)"/>
<path d="M0 0 C1.85776765 3.13498292 2.20140476 5.37471432 2 9 C1.67 9 1.34 9 1 9 C0.67 11.64 0.34 14.28 0 17 C-0.33 17 -0.66 17 -1 17 C-1.02691685 14.54159395 -1.04679802 12.08348118 -1.0625 9.625 C-1.07087891 8.92632812 -1.07925781 8.22765625 -1.08789062 7.5078125 C-1.11328125 2.2265625 -1.11328125 2.2265625 0 0 Z " fill="#E4DDAF" transform="translate(316,231)"/>
</svg>
